# xmcd CD database file
#
# Track frame offsets:
#	150
#	17853
#	35969
#	53095
#	67207
#	83990
#	101864
#	115084
#	133097
#	147028
#	161771
#	176545
#	189237
#	202561
#	219813
#	229442
#	244622
#	261714
#	277725
#
# Disc length: 3899 seconds
#
# Revision: 0
# Processed by: cddbd v1.5.2PL0 Copyright (c) Steve Scherf et al.
# Submitted via: CDex 1.70beta2
#
DISCID=160f3913
DTITLE=Various Artist - NU COUNTRY TRAXX 169
DYEAR=2013
DGENRE=Country
TTITLE0=Crash My Party - Luke Bryan
TTITLE1=See You Again - Carrie Underwood
TTITLE2=Boys 'Round Here - Blake Shelton ft. Pistol Annies
TTITLE3=Parking Lot Party - Lee Brice
TTITLE4=Your Side Of The Bed - Little Big Town
TTITLE5=I Want Crazy - Hunter Hayes
TTITLE6=Hypnotizing - Hayden Panettiere
TTITLE7=Watch The World End - Trace Adkins ft. Colbie Caillat
TTITLE8=Chase A Little Love - LoCash Cowboys
TTITLE9=Complete 360 - Kix Brooks
TTITLE10=Girls Are Crazy - Joanna Smith
TTITLE11=Friday Night - Eric Paslay
TTITLE12=Stop Drop and Roll - Tracy Lawrence
TTITLE13=One Of These Days - Bryce Pallister
TTITLE14=Ho Hey - Lennon and Maisy Stella
TTITLE15=Fuzzy - Randy Rogers Band
TTITLE16=See You Tonight - Scotty McCreery
TTITLE17=Did You Ever Turn Around - Rosehill
TTITLE18=Hankin I t Up - Buddy Eugene and Claudia
EXTD=YEAR: 2013
EXTT0=
EXTT1=
EXTT2=
EXTT3=
EXTT4=
EXTT5=
EXTT6=
EXTT7=
EXTT8=
EXTT9=
EXTT10=
EXTT11=
EXTT12=
EXTT13=
EXTT14=
EXTT15=
EXTT16=
EXTT17=
EXTT18=
PLAYORDER=
